<svg width="1326" height="885" viewBox="0 0 1326 885" fill="none" xmlns="http://www.w3.org/2000/svg">
<path d="M59.221 324.1C59.221 324.1 931.321 102.6 833.921 183.4C736.521 264.2 526.921 318.7 676.421 318.2C825.921 317.7 1180.62 283.4 1020.32 418.6C860.021 553.8 826.321 554.7 960.321 591C1094.32 627.3 1512.12 826.5 717.721 874.7C-76.679 923 252.921 758 252.921 758C252.921 758 437.821 677.3 216.121 595.7C9.22102 488.7 11.021 395.2 85.021 383.8C159.021 372.4 572.521 357.2 59.221 324.1Z" fill="#BDCBD4"/>
<path d="M1173.82 793.1C1173.72 792.7 1166.42 755.5 1132.02 713.3C1100.32 674.3 1038.42 623 923.721 599.8C852.721 585.4 815.721 566.4 810.421 541.5C806.921 525.1 816.821 506.5 841.421 483.1C863.021 462.6 893.821 440.7 923.521 419.5C943.121 405.5 963.421 391.1 981.121 377C1002.82 359.8 1011.82 347.8 1008.72 340.4C1001.02 322.2 920.721 332.4 819.121 345.4C773.721 351.2 722.321 357.8 671.821 362.4C606.121 368.5 576.921 367.3 574.321 358.4C570.721 346.1 620.721 320.2 696.321 281C736.221 260.3 781.521 236.8 830.321 209.5C871.721 186.4 890.821 169.6 887.221 159.7C875.021 126.4 617.421 176.2 614.821 176.7L614.621 175.7C625.321 173.6 875.721 125.2 888.121 159.3C892.021 169.9 873.221 186.6 830.821 210.3C782.021 237.6 736.721 261.1 696.821 281.8C624.321 319.4 571.921 346.6 575.321 358.1C577.721 366.2 608.321 367.2 671.721 361.4C722.221 356.7 773.621 350.2 819.021 344.4C921.021 331.4 1001.62 321.1 1009.62 340C1012.92 347.9 1003.82 360.2 981.721 377.8C964.021 391.9 943.721 406.3 924.021 420.3C864.921 462.4 803.721 505.9 811.221 541.3C816.421 565.7 853.221 584.6 923.821 598.8C974.621 609.1 1019.42 625.7 1056.92 648.1C1087.02 666.1 1112.52 687.8 1132.72 712.7C1167.22 755.1 1174.62 792.5 1174.62 792.9L1173.82 793.1Z" fill="#1A1A1A"/>
<path d="M39.021 506.3C5.32095 469 -6.67905 437.9 3.52095 413.9C13.121 391.3 42.3209 374.8 90.2209 365C131.121 356.6 175.721 355.1 197.221 354.3C207.421 353.9 208.721 353.1 208.921 352.8C206.921 347.9 90.0209 333.3 11.9209 324.7L10.021 324.5L11.821 323.8C176.621 255.5 523.721 187.5 527.221 186.8L527.421 187.8C523.921 188.5 179.521 256 14.021 324C23.621 325.1 67.521 330 110.921 335.6C210.121 348.3 210.021 351.6 210.021 353.1C210.021 354 209.021 355.1 197.421 355.5C176.021 356.2 131.421 357.8 90.6209 366.2C43.0209 376 14.1209 392.2 4.62094 414.5C-5.37906 438.1 6.52094 468.9 39.9209 505.9L39.021 506.3Z" fill="#1A1A1A"/>
<path d="M719.221 867H578.221V873.5H719.221V867Z" fill="#272727"/>
<path d="M708.521 860.6H584.321V867H708.521V860.6Z" fill="#FDDFD2"/>
<path d="M465.621 518.3C465.621 518.3 566.821 670.2 584.221 749.4L521.021 876.5L465.621 518.3Z" fill="#096473"/>
<path d="M656.521 833.5L521.121 876.5L545.521 645H670.021L656.521 833.5Z" fill="#FDDFD2"/>
<path d="M262.621 454.5L139.521 526.7C139.521 526.7 17.7209 757.4 33.5209 834.8L127.921 876.5H521.121C521.121 876.5 512.121 564.1 465.721 518.3L359.621 462.2L262.621 454.5Z" fill="#008EA3"/>
<path d="M359.521 425.1V462.2C359.521 462.2 334.121 504.7 262.621 454.5L287.721 312.7L355.421 418.9L359.521 425.1Z" fill="#FFC7BB"/>
<path d="M359.521 425.1V450.2C343.321 449.3 295.021 440.1 294.921 360.7L355.521 418.8L359.521 425.1Z" fill="#C98272"/>
<path d="M411.521 311.4C411.521 311.4 400.421 416.6 359.521 425.2C350.121 427.2 339.021 424 326.221 413.2C307.421 397.4 295.921 374.7 293.221 350.3C289.121 314.6 295.521 279.2 295.521 279.2L392.121 306L411.521 311.4Z" fill="#FFC7BB"/>
<path d="M588.121 845.3L608.421 861L596.121 838.2L588.121 845.3Z" fill="#281616"/>
<path d="M484.721 711.4L480.221 715.2C478.921 716.3 476.921 716.2 475.721 714.8L468.021 705.8C466.921 704.5 467.021 702.5 468.421 701.3L472.921 697.5C474.221 696.4 476.221 696.5 477.421 697.9L485.121 706.9C486.221 708.2 486.121 710.2 484.721 711.4Z" fill="#281616"/>
<path d="M477.921 702.8L472.121 707.8C470.421 709.3 467.821 709.1 466.321 707.3L459.821 699.7C458.321 698 458.521 695.4 460.321 693.9L466.121 688.9C467.821 687.4 470.421 687.6 471.921 689.4L478.421 697C479.921 698.7 479.721 701.4 477.921 702.8Z" fill="#FB2257"/>
<path d="M595.021 839.9L589.221 844.9C587.521 846.4 584.921 846.2 583.421 844.4L472.421 714.2C470.921 712.5 471.121 709.9 472.921 708.4L478.721 703.4C480.421 701.9 483.021 702.1 484.521 703.9L595.521 834.1C597.021 835.8 596.721 838.4 595.021 839.9Z" fill="#F8CA7A"/>
<path d="M623.221 759.6C623.221 759.6 668.621 732.5 671.921 733.5C675.221 734.5 673.521 749.3 673.521 749.3C673.521 749.3 625.221 777 623.221 759.6Z" fill="#FFC7BB"/>
<path d="M622.821 776.8C622.821 776.8 622.621 765.9 667.821 771.7C667.821 771.7 669.321 783.5 657.621 782.8C645.921 782.1 626.921 784.3 622.821 776.8Z" fill="#FFC7BB"/>
<path d="M623.221 786.4C623.221 786.4 657.821 779.8 667.121 784.9C667.121 784.9 669.621 794.6 661.221 795.8C652.821 797 621.821 800.1 623.221 786.4Z" fill="#FFC7BB"/>
<path d="M673.521 749.3L661.221 765.4V755.7L673.521 749.3Z" fill="#C98272"/>
<path d="M202.921 633.8C202.921 633.8 196.921 710.8 153.621 774.5L321.621 822.5C321.521 822.6 296.921 712 202.921 633.8Z" fill="#096473"/>
<path d="M581.621 778.9C580.321 769 527.821 768.3 518.921 769C510.021 769.8 439.521 816.8 431.221 818.8C425.021 820.3 405.921 816.2 396.721 814.1C392.921 813.2 389.021 812.4 385.121 811.8L140.521 771.5C131.221 768.3 120.821 766.4 109.821 766.4C69.021 766.4 35.821 791.5 35.821 822.5V823.2C36.321 853.9 69.221 878.6 109.821 878.6C111.321 878.6 112.721 878.6 114.221 878.5L391.421 871.8H391.721L427.621 870.9C445.521 884.8 514.821 860.3 514.821 860.3L557.521 864.6C572.421 861.1 563.621 848.9 563.621 848.9C583.621 848.9 572.221 830.7 572.221 830.7C572.221 830.7 575.521 830.1 577.121 824.1C584.121 830.3 590.921 829.2 590.921 829.2C590.921 829.2 582.921 788.8 581.621 778.9ZM536.221 790.3L564.121 797.4C564.721 800.1 565.321 802.6 566.021 804.9C554.121 797.2 537.321 790.7 536.221 790.3Z" fill="#FFC7BB"/>
<path d="M514.921 860.3C514.921 860.3 445.521 884.8 427.721 870.9L391.821 871.8H391.521L114.321 878.5C112.821 878.6 111.421 878.6 109.921 878.6C69.4209 878.6 36.4209 853.9 35.9209 823.2C56.8209 841.8 101.021 866.7 182.521 857.3C308.221 842.9 498.221 843.9 514.921 860.3Z" fill="#C98272"/>
<path d="M178.521 731.8L175.721 730.7C194.021 684.1 203.021 644.1 202.221 611.8C201.621 585.8 194.721 564.6 181.821 548.9C156.921 518.8 118.921 519.6 118.521 519.7L117.821 516.8C120.921 516 157.521 516.9 182.421 545C196.521 561 204.221 582.7 205.221 609.6C206.421 642.7 197.421 683.8 178.521 731.8Z" fill="#1A1A1A"/>
<path d="M411.521 311.4C411.521 311.4 400.421 416.6 359.521 425.2C359.521 425.2 399.521 353 392.121 306L411.521 311.4Z" fill="#C98272"/>
<path d="M304.321 308.5C304.321 308.5 453.721 355.9 455.121 249.5C456.621 143.1 417.921 261.6 394.721 238.9C371.521 216.2 300.321 188.6 296.121 253.9C296.121 253.9 266.121 223.9 281.121 324.5C286.421 342.8 304.321 308.5 304.321 308.5Z" fill="#1A1A1A"/>
<path d="M289.321 320.4C289.321 320.4 264.221 274.3 270.321 318.1C276.421 362 281.321 357.5 289.321 320.4Z" fill="#FFC7BB"/>
<path d="M281.821 316.7C281.821 316.7 268.921 295.1 275.221 324.4C281.521 353.7 284.421 322.5 284.421 322.5L277.621 325.6L281.821 316.7Z" fill="#C98272"/>
<path d="M320.621 499.3C306.421 499.3 294.121 496.1 284.421 492.1C260.121 482 246.221 465.4 245.621 464.7L247.921 462.8C248.021 463 261.921 479.7 285.621 489.4C307.421 498.4 342.221 503.1 384.521 474.7L386.221 477.2C361.621 493.8 339.421 499.3 320.621 499.3Z" fill="#1A1A1A"/>
<path d="M375.721 296.2C364.921 296.2 352.921 294.4 339.821 290.8L340.121 289.8C373.221 298.8 398.921 296.4 416.521 282.5C442.321 262.2 441.421 223.9 441.421 223.6H442.421C442.421 224 443.221 262.8 417.121 283.4C406.221 291.9 392.421 296.2 375.721 296.2Z" fill="white"/>
<path d="M311.521 256.1L310.521 255.8C314.221 244.3 320.721 236.4 329.921 232.5C339.421 228.4 356.921 226.5 385.921 240.5C386.621 240.8 387.121 241.1 387.221 241.1L387.121 241.4V242.1C386.921 242.1 386.821 242 385.421 241.4C356.721 227.5 339.621 229.4 330.221 233.4C321.521 237.2 315.121 244.8 311.521 256.1Z" fill="white"/>
<path d="M367.821 281.6C360.621 281.6 352.821 280.9 344.521 279.6L344.721 278.6C374.821 283.3 397.821 279.4 413.121 267C429.921 253.4 431.121 234 431.121 233.9L432.121 234C432.121 234.2 430.921 254 413.821 267.9C402.421 277 387.021 281.6 367.821 281.6Z" fill="white"/>
<path d="M633.921 805.7C633.921 805.7 662.121 792.4 671.221 793.8C671.221 793.8 675.421 800.1 668.421 803.1C661.521 806.1 635.521 816 633.921 805.7Z" fill="#FFC7BB"/>
<path d="M1274.92 884.2H5.52095C2.62095 884.2 0.220947 881.8 0.220947 878.9C0.220947 876 2.62095 873.6 5.52095 873.6H1274.82C1277.72 873.6 1280.12 876 1280.12 878.9C1280.22 881.8 1277.82 884.2 1274.92 884.2Z" fill="#272727"/>
<path d="M925.021 862.1H1122.22C1124.92 862.1 1127.32 860.4 1128.32 857.9L1169.92 746.6C1171.52 742.4 1168.42 737.9 1163.82 737.9H966.021C963.321 737.9 960.921 739.6 959.921 742.1L919.021 853.4C917.421 857.7 920.521 862.1 925.021 862.1Z" fill="#272727"/>
<path d="M1167.32 753.2L1128.22 857.8C1127.22 860.4 1124.72 862.2 1121.92 862.2H931.621C926.921 862.2 923.721 857.5 925.321 853.1L940.021 813.6L964.321 748.5C965.321 745.9 967.821 744.1 970.621 744.1H1160.92C1165.72 744.1 1169.02 748.8 1167.32 753.2Z" fill="#FF3262"/>
<path d="M1123.92 871.8H926.921C924.221 871.8 922.121 869.6 922.121 867C922.121 864.3 924.321 862.2 926.921 862.2H1123.92C1126.62 862.2 1128.72 864.4 1128.72 867C1128.72 869.6 1126.62 871.8 1123.92 871.8Z" fill="#DBBEBF"/>
<path d="M922.221 871.8H740.621C737.921 871.8 735.821 869.6 735.821 867C735.821 864.3 738.021 862.2 740.621 862.2H922.221C924.921 862.2 927.021 864.4 927.021 867C927.121 869.6 924.921 871.8 922.221 871.8Z" fill="#272727"/>
<path d="M1167.32 753.2L1128.22 857.8C1127.22 860.4 1124.72 862.2 1121.92 862.2H931.621C926.921 862.2 923.721 857.5 925.321 853.1L940.021 813.6L1074.62 744.1H1160.92C1165.72 744.1 1169.02 748.8 1167.32 753.2Z" fill="#DD2F57"/>
<path d="M783.821 256.2L760.821 324.4H854.621L833.321 256.2H783.821Z" fill="#FF3262"/>
<path d="M796.621 219.2L766.521 256.2H847.221L818.821 219.2H796.621Z" fill="#272727"/>
<path d="M818.821 185H796.621V219.3H818.821V185Z" fill="#272727"/>
<path d="M806.921 256.2V324.4H854.621L833.321 256.2H806.921Z" fill="#DD2F57"/>
<path d="M808.421 0H805.421V202.1H808.421V0Z" fill="#272727"/>
<path d="M941.621 306.4L918.621 374.6H1012.42L991.121 306.4H941.621Z" fill="#FF3262"/>
<path d="M954.421 269.4L924.321 306.4H1005.02L976.621 269.4H954.421Z" fill="#272727"/>
<path d="M976.621 235.2H954.421V269.5H976.621V235.2Z" fill="#272727"/>
<path d="M964.621 306.4V374.6H1012.42L991.121 306.4H964.621Z" fill="#DD2F57"/>
<path d="M966.121 50.2H963.121V252.3H966.121V50.2Z" fill="#272727"/>
<path d="M1101.82 473.8V378.3H1190.42L1101.82 473.8ZM1102.82 379.3V471.3L1188.12 379.3H1102.82Z" fill="#1A1A1A"/>
<path d="M756.221 481.1L758.221 480.9L755.221 456.2L753.221 456.4L754.621 468.3C752.021 466.3 721.221 442.6 689.321 447.9C672.221 450.8 657.621 461.3 646.121 479.4C642.321 475.9 627.121 463.4 606.721 464.7C588.621 465.8 571.321 477.3 555.421 498.7L554.321 500.2L552.721 486.9L550.721 487.1L553.721 511.8L555.721 511.6L554.421 500.7L754.921 470.3L756.221 481.1ZM558.521 497.9C573.721 478.3 589.921 467.8 606.921 466.7C607.921 466.6 608.821 466.6 609.821 466.6C630.921 466.6 645.621 481.5 645.721 481.7L646.621 482.6L647.321 481.5C658.621 463.3 672.921 452.7 689.721 449.9C717.521 445.3 744.621 463.3 751.821 468.6L558.521 497.9Z" fill="white"/>
<path d="M706.421 507.1L673.621 582C673.621 582 673.021 598.9 701.121 610.1C729.221 621.3 755.421 635.1 762.321 643.8L797.921 569.5C797.921 569.5 774.021 554.7 759.821 552.7C745.921 550.8 706.421 507.1 706.421 507.1Z" fill="#FDDFD2"/>
<path d="M1158.82 93.9L1126.02 168.8C1126.02 168.8 1125.42 185.7 1153.52 196.9C1181.62 208.1 1207.82 221.9 1214.72 230.6L1250.32 156.3C1250.32 156.3 1226.42 141.5 1212.22 139.5C1198.32 137.6 1158.82 93.9 1158.82 93.9Z" fill="#FDDFD2"/>
<path d="M48.1209 156.2L55.4209 137.4L0.720947 101.1L48.1209 156.2Z" fill="#1A1A1A"/>
<path d="M55.4209 137.4L71.1209 132.1L0.720947 101.1L55.4209 137.4Z" fill="#FDDFD2"/>
<path d="M36.821 143.1L48.121 156.2V139.4L36.821 143.1Z" fill="#1A1A1A"/>
<path d="M0.720947 101.1L22.4209 147.7L48.1209 139.4L0.720947 101.1Z" fill="#FDDFD2"/>
<path d="M97.6209 229.1C95.8209 229.1 94.121 228.9 92.321 228.6C79.521 226.1 70.821 214.7 65.321 206.4C56.821 193.5 50.2209 179.5 45.7209 164.7L46.7209 164.4C51.2209 179.1 57.7209 193 66.2209 205.8C74.7209 218.8 83.121 225.7 92.521 227.6C106.321 230.3 119.021 221.2 125.421 215.5C130.321 211.2 134.621 206.3 138.321 201C134.821 192.7 133.221 183.5 133.621 174.5C133.821 170.7 135.121 165.3 138.421 162.3C140.021 160.9 141.821 160.2 143.821 160.3C146.121 160.4 148.021 161.5 149.421 163.5C152.221 167.5 152.021 174.6 150.421 179.4C147.821 187.2 144.121 194.5 139.521 201.2C140.521 203.6 141.721 205.9 143.021 208.1C146.321 213.6 151.821 220.4 159.721 221.9C166.421 223.1 173.221 220.1 178.421 217.3C203.321 204 222.421 181.8 240.821 160.3C260.821 137.1 281.421 113 309.521 100.4C334.621 89.1 362.821 88.1 391.921 88C410.121 87.9 427.621 88.7 441.221 98.6C448.921 104.2 454.421 112.2 459.821 120C465.621 128.4 471.621 137.1 480.221 142.5C491.921 149.8 508.521 150.5 524.521 144.4C539.021 138.8 551.321 128.9 563.221 119.4L650.321 49.4L650.921 50.2L563.821 120.2C551.921 129.8 539.521 139.7 524.921 145.4C508.621 151.7 491.821 150.9 479.821 143.4C471.021 137.9 464.921 129.1 459.121 120.6C453.821 112.9 448.321 104.9 440.821 99.4C427.521 89.7 410.221 89 392.121 89C363.121 89.1 335.021 90.1 310.121 101.3C282.221 113.8 261.721 137.8 241.821 160.9C223.321 182.4 204.221 204.7 179.121 218.1C173.821 220.9 166.821 224 159.821 222.8C151.521 221.3 145.821 214.2 142.421 208.6C141.221 206.5 140.021 204.3 139.121 202.1C135.421 207.3 131.221 212 126.421 216.3C120.321 221.4 109.721 229.1 97.6209 229.1ZM143.321 161.3C141.721 161.3 140.221 161.9 139.021 163C136.021 165.7 134.721 170.9 134.521 174.5C134.121 183.1 135.621 191.9 138.921 200C143.321 193.5 146.821 186.5 149.321 179C150.821 174.4 151.021 167.8 148.521 164C147.321 162.3 145.721 161.4 143.721 161.3C143.521 161.3 143.421 161.3 143.321 161.3Z" fill="#1A1A1A"/>
<path d="M550.212 293.686L471.216 328.687L519.869 438.494L598.864 403.493L550.212 293.686Z" fill="#FDDFD2"/>
<path d="M1301.42 352.169L1072.83 558.591L1097.16 585.533L1325.75 379.111L1301.42 352.169Z" fill="#FDDFD2"/>
<path d="M1078.52 575.5L1077.92 574.7L1307.32 373.9L1317.72 386.6L1316.92 387.2L1307.12 375.3L1078.52 575.5Z" fill="#1A1A1A"/>
<path d="M1235.61 460.721L1223.68 447.783L1222.94 448.461L1234.87 461.399L1235.61 460.721Z" fill="#1A1A1A"/>
<path d="M1131.43 554.675L1118.83 539.528L1118.06 540.167L1130.66 555.315L1131.43 554.675Z" fill="#1A1A1A"/>
<path d="M1138.1 548.788L1125.14 534.084L1124.39 534.745L1137.35 549.449L1138.1 548.788Z" fill="#1A1A1A"/>
<path d="M1313.15 390.759L1303.37 378.096L1302.57 378.708L1312.36 391.37L1313.15 390.759Z" fill="#1A1A1A"/>
<path d="M786.621 775.1L753.721 717.6L817.121 681.4L850.021 738.9L786.621 775.1ZM755.121 717.9L787.021 773.7L848.621 738.5L816.721 682.7L755.121 717.9Z" fill="#1A1A1A"/>
<path d="M781.821 817.3C760.621 817.3 743.321 800 743.321 778.8C743.321 757.6 760.621 740.3 781.821 740.3C803.021 740.3 820.321 757.6 820.321 778.8C820.321 800 803.021 817.3 781.821 817.3ZM781.821 741.3C761.121 741.3 744.321 758.1 744.321 778.8C744.321 799.5 761.121 816.3 781.821 816.3C802.521 816.3 819.321 799.5 819.321 778.8C819.321 758.1 802.521 741.3 781.821 741.3Z" fill="#1A1A1A"/>
<path d="M930.221 727.7L847.321 680.3L891.321 603.3L930.221 727.7ZM848.621 679.9L928.521 725.5L891.021 605.8L848.621 679.9Z" fill="#1A1A1A"/>
</svg>
